/* XPM */
static char *_7b8457368534c80ec34fb2c9656e316QdmlVXTO2bU97tQ9[] = {
/* columns rows colors chars-per-pixel */
"64 64 256 2 ",
"   c black",
".  c #010101",
"X  c #020202",
"o  c gray1",
"O  c #040404",
"+  c gray2",
"@  c #060606",
"#  c #070707",
"$  c gray3",
"%  c #090909",
"&  c gray4",
"*  c #0B0B0B",
"=  c #0C0C0C",
"-  c gray5",
";  c #0E0E0E",
":  c gray6",
">  c #101010",
",  c #111111",
"<  c gray7",
"1  c #131313",
"2  c gray8",
"3  c #151515",
"4  c #161616",
"5  c gray9",
"6  c #181818",
"7  c #191919",
"8  c gray10",
"9  c #1B1B1B",
"0  c gray11",
"q  c #1D1D1D",
"w  c #1E1E1E",
"e  c gray12",
"r  c #202020",
"t  c gray13",
"y  c #222222",
"u  c #232323",
"i  c gray14",
"p  c #252525",
"a  c gray15",
"s  c #272727",
"d  c #282828",
"f  c gray16",
"g  c #2A2A2A",
"h  c gray17",
"j  c #2C2C2C",
"k  c #2D2D2D",
"l  c gray18",
"z  c #2F2F2F",
"x  c gray19",
"c  c #313131",
"v  c #323232",
"b  c gray20",
"n  c #343434",
"m  c #353535",
"M  c gray21",
"N  c #373737",
"B  c gray22",
"V  c #393939",
"C  c #3A3A3A",
"Z  c gray23",
"A  c #3C3C3C",
"S  c gray24",
"D  c #3E3E3E",
"F  c #3F3F3F",
"G  c gray25",
"H  c #414141",
"J  c gray26",
"K  c #434343",
"L  c #444444",
"P  c gray27",
"I  c #464646",
"U  c gray28",
"Y  c #484848",
"T  c #494949",
"R  c gray29",
"E  c #4B4B4B",
"W  c #4C4C4C",
"Q  c gray30",
"!  c #4E4E4E",
"~  c gray31",
"^  c #505050",
"/  c #515151",
"(  c gray32",
")  c #535353",
"_  c gray33",
"`  c #555555",
"'  c #565656",
"]  c gray34",
"[  c #585858",
"{  c gray35",
"}  c #5A5A5A",
"|  c #5B5B5B",
" . c gray36",
".. c #5D5D5D",
"X. c gray37",
"o. c #5F5F5F",
"O. c #606060",
"+. c gray38",
"@. c #626262",
"#. c gray39",
"$. c #646464",
"%. c #656565",
"&. c gray40",
"*. c #676767",
"=. c #686868",
"-. c DimGray",
";. c #6A6A6A",
":. c gray42",
">. c #6C6C6C",
",. c #6D6D6D",
"<. c gray43",
"1. c #6F6F6F",
"2. c gray44",
"3. c #717171",
"4. c #727272",
"5. c gray45",
"6. c #747474",
"7. c gray46",
"8. c #767676",
"9. c #777777",
"0. c gray47",
"q. c #797979",
"w. c gray48",
"e. c #7B7B7B",
"r. c #7C7C7C",
"t. c gray49",
"y. c #7E7E7E",
"u. c gray50",
"i. c #808080",
"p. c #818181",
"a. c gray51",
"s. c #838383",
"d. c #848484",
"f. c gray52",
"g. c #868686",
"h. c gray53",
"j. c #888888",
"k. c #898989",
"l. c gray54",
"z. c #8B8B8B",
"x. c gray55",
"c. c #8D8D8D",
"v. c #8E8E8E",
"b. c gray56",
"n. c #909090",
"m. c gray57",
"M. c #929292",
"N. c #939393",
"B. c gray58",
"V. c #959595",
"C. c gray59",
"Z. c #979797",
"A. c #989898",
"S. c gray60",
"D. c #9A9A9A",
"F. c #9B9B9B",
"G. c gray61",
"H. c #9D9D9D",
"J. c gray62",
"K. c #9F9F9F",
"L. c #A0A0A0",
"P. c gray63",
"I. c #A2A2A2",
"U. c gray64",
"Y. c #A4A4A4",
"T. c #A5A5A5",
"R. c gray65",
"E. c #A7A7A7",
"W. c gray66",
"Q. c #A9A9A9",
"!. c #AAAAAA",
"~. c gray67",
"^. c #ACACAC",
"/. c gray68",
"(. c #AEAEAE",
"). c #AFAFAF",
"_. c gray69",
"`. c #B1B1B1",
"'. c #B2B2B2",
"]. c gray70",
"[. c #B4B4B4",
"{. c gray71",
"}. c #B6B6B6",
"|. c #B7B7B7",
" X c gray72",
".X c #B9B9B9",
"XX c gray73",
"oX c #BBBBBB",
"OX c #BCBCBC",
"+X c gray74",
"@X c gray",
"#X c gray75",
"$X c #C0C0C0",
"%X c #C1C1C1",
"&X c gray76",
"*X c #C3C3C3",
"=X c gray77",
"-X c #C5C5C5",
";X c #C6C6C6",
":X c gray78",
">X c #C8C8C8",
",X c gray79",
"<X c #CACACA",
"1X c #CBCBCB",
"2X c gray80",
"3X c #CDCDCD",
"4X c #CECECE",
"5X c gray81",
"6X c #D0D0D0",
"7X c gray82",
"8X c #D2D2D2",
"9X c LightGray",
"0X c gray83",
"qX c #D5D5D5",
"wX c gray84",
"eX c #D7D7D7",
"rX c #D8D8D8",
"tX c gray85",
"yX c #DADADA",
"uX c gray86",
"iX c gainsboro",
"pX c #DDDDDD",
"aX c gray87",
"sX c #DFDFDF",
"dX c gray88",
"fX c #E1E1E1",
"gX c #E2E2E2",
"hX c gray89",
"jX c #E4E4E4",
"kX c gray90",
"lX c #E6E6E6",
"zX c #E7E7E7",
"xX c gray91",
"cX c #E9E9E9",
"vX c #EAEAEA",
"bX c gray92",
"nX c #ECECEC",
"mX c gray93",
"MX c #EEEEEE",
"NX c #EFEFEF",
"BX c gray94",
"VX c #F1F1F1",
"CX c gray95",
"ZX c #F3F3F3",
"AX c #F4F4F4",
"SX c gray96",
"DX c #F6F6F6",
"FX c gray97",
"GX c #F8F8F8",
"HX c #F9F9F9",
"JX c gray98",
"KX c #FBFBFB",
"LX c gray99",
"PX c #FDFDFD",
"IX c #FEFEFE",
"UX c white",
/* pixels */
"9 v d y e h c q 7 m J a l H P d r < % $ $ % & * 4 4 4 8 D z , 3 u x i s h G W K P H R m r q 8 4 q p g p t z g L B V J D k s v a ",
"S I Z Y _ } E n F Q ) i 0 Q #.@.E q h n 6 g h w M l u e L b 5 y Y Z > d B N n y s D E j q 6 9 l n ! E N c L ! ( W m i U F I W J ",
"l c i a c D N h j J A u S { O.,.+.E #.E a ~ ~ B Q I A 4 ~ ! m f ~ Z , C P f & - d < r g 5 3 j / ] } ( v H O.} W t - > 8 s /  .N ",
"h w 9 e s g u w = 3 9 h #. .X.1.3.1.%.D K X.^ A R _ V u / ..U r K G b U P U e 3 h > 7 s : 5 e x B W Z r W <...i 2 $ $ > r U t 7 ",
"a 2 8 1 > ; 1 1 ; ; 7 t |  .] ] ..@.F V O.| ! ~ / T U b K E U Y K L I I S ( ` U @.S n j 1 q r r s n r 1 ^ 3.O.l q = > > a D x i ",
"w 2 e 2 1 7 w 2 9 8 5 0 G ~ ~ L A ^ w 9 U ( _ ` L B R H G h M Z C I D F ' @.7.] ^ | ' u 4 u j l a h u 4 U =.| G n j u ! C ^ ' z ",
"w g S n u 0 w r f 2 6 z s u s s t g e h M d h C u 1 8 h y 9 4 6 7 u y j L V n u u g v 4 5 l C N f d e t c C U P I  .L X.m n V s ",
"r R :.-.| ] ! E T P o.2.<.X.x k h g I I H L Y v j i 0 G g & 3 9 M z m v F @._ K 7 : * : 8 w > q w w d p d C B f l s w g B d h i ",
"s +.>.;.O.@.o.' { ..o.-.>.:.C A W D ` ^ ' ` O.E [ R I k.t.X.g R k.T S Y / ~ C h e > 2 t 8 e ; > 4 0 , < r a e i v r 3 j ~ _ P d ",
"8 c ( ` / / W ) ] ) Q ] ' / ( ,.&.~ I T W E ( B ` | C.@X/.R.r.d.I.*.N E ) ] :.n > , - e y w : 5 0 ; : : u 2 > N c u > s P Q U f ",
"e A ) ) ( ) ~ I ! U E ! ! Z X.1.X.L l V z A M f } q.].OXE.'.[.).Y.w.} g.U.{.#X@.9 < # , 4 8 > 5 r 0 1 p S v I U c j % V W ! I h ",
"C } _ ( ! E W P P I U [ :.U ( %.@.G i p < a n g &.J._.|.{. X$X%X^.J.D.J.A.'.#X5.F m # $ , # = 6 7 r s g c w } / s S k E ~ Y H m ",
"d / @.] ~ [ [ / J L L ( ( { 1.r.d.[ k e 3 0 P i ^ M.~.].|.`.T.Q.J.x.k.m.c.C.V.{ } c : > 1 < 4 w u a h k c C K W j T Q n P J S c ",
"g j V l j C P B b h t f i t l x x n 8 ; 1 % 5 5 u k _ *.! K U H Q Y M z v d g f z n d y q 6 z H p d f s l S J Z N E K d N h n z ",
"W ~ ~ m u h V 0 3 7 8 B S G E s 7 6 u d w 4 & # % & k c 5 D ..C x F j i G I L K S G H e % = 4 e M U i g &.q.0.6.>.-.E ^ ' E ~ T ",
"@.X.| ' Q R V 2 k L p L x m Q U a g B k a & & 8 z K { D 9 I { ' W ^ C T @.O.+.D | / A 1 $ # @ = 4 l E A r.n.V.g.y.6.=.O.} ..[ ( ",
"X.U I m G K ! D P R e M N s A T x 6 1 7 d 7 b A $.&.1.I i J J T Y E l ! %.#.%.J R [ ( n 7 @ $ * * 6 ! n 7.M.M.a.5.:.X.o.| | ( ~ ",
"~ z y : 5 A  .! U W j F G A A T R Z 1 9 S 7 v k J [ :.C m I S b G a 5 V } X.*.L W @.<.@.d @ ; * 3 w v d E b.x.6.>.:.&.O.' ^ J S ",
"B 5 = @ + x ' ( R T m H A V D Y D f 6 k d & 8 q 9 ^ X.p S K Z x F s > A *.@.O.&.>.4.1.:.M % $ 6 j U { x ( g.r.*.-.&.@.} R L A l ",
"u 0 w w r Y O.} ' U v G L L G H f 2 g D P K < w e J _ i D P B M E U t C _ { %.X.,.o.#.o.C 0 s U T T O.x >.w.] [ #.~ ^ ^ I L b e ",
"M n n x b S K P F M s b c k s g g f j M L n 8 l x r s e d 8 v l b V b 8 8 q a N G S F C D l g h p l k y B A v H J n v C b i 7 y ",
"P _ ' D H J K J P R ~ ! Z s @.-. .x , v v > 7 Z v t U 2.t.A ..-._ 5.~ u 3 * h { o.$.#.>.,.V j z 1 ; ; * e G s f D H 6 Z _ A F ^ ",
"H U ) Y I C H R G c k a p i n.`.' * & H U i , Y k j 1.F.}.o.;.K.s.} h F E L Q  .X.*.-.*.F r p > $ # ; @ 4 w = = 9 b @ d E H L ` ",
"Z b K H A z A L N 0 , = 5 7 K w.c & i X.#.V J +._  .2.N./.E %.F.Q 4 5 Q +.| ;.#.:.>.$. .s q p 3 * * $ # , t 5 & j Z d y n R M Q ",
"I S A H G Y E P Z V 7 + 2 u m ( y + x =.V , U ..R ~ Y n.b.~ %.X.h 1 h B E k ) 1.1.%.O.^ t a 7 , 1 ; < * = i 7 8 v c h a l T F { ",
"P H P K V J ! F p 3 ; 2 2 h 0.C m : K q.L b @. .f e c s.l.X.E J C d ` v 5 @ a @.#.X.) W r w 2 2 , 5 , & 7 8 > < l 8 f 5 5 A S } ",
"J I R T z 0 z e 4 2 ; 3 5 j G B U d B %.! } 3.X.b j j ! ( Z v P B e Y R d w c _ A I Q B e w t r 0 9 8 0 t i 1 b ^ x k q s S x L ",
"i k m j v t 0 g h j l q e V k x E V g N v j F L n d f q 7 0 m Y b i z x l a R M s c n d u i m f t a f a u w r i p h d l n c e w ",
"k r e x { ) ^ ] =.] [ ~ H Y W  .:.X.N z g B B G ~ o.@.C * p d.d.e 1 , , & ; 5 7 r 7.V.u.N e C j 5 , 4 w q e x k k Q *.+.Q ( W v ",
" .M s z o.-.+.+.>.X.( | U ' ~ ` 4.3.d & d F 8 v L C r q + ; W O.e @ o o +   o q s 2.H.f.n * 6 3 1 : > 6 a P L f A Z =.O.^ ^ ^ W ",
"-.*.f 8 W U Q { ( @.` *.*.} ( Q %.~ w X 2 : < z i 2 o . o > = F } r +   5 e o U G 2.A.w.S - > , - > ; ; 5 i T n l S :.} ) ' ) _ ",
"*.$.a d K q z ! ) ^ P ' } R D c ` W : +   X > i l i # # # 6 > 5 v { z - x 7 9 #.| d.M.n.` * = ; , ; - * $ d Q A f U *.*.O.] [ [ ",
"8.4.f u v 8 K ! ,.1.X.=.) I V k /  .< @ r , # j h A j d $ 4 e 7 6 T u.*.+./ r.n...l.c.e.C : $ * = * ; ; < t s I z j 2.l.:.) | O.",
"*.' e 2 g 7 M B ` %.~ W Q ( [ ! ( ! m A E n z P J @.I Y b ' ~ v m } K ^ N.b.2.=.b ) 3.( 4 * 7 6 > 3 7 n G M A +.k j  .$.~ G D Q ",
"l k 3 7 7 9 y s d b i 9 r h f c f g z c x f g x M R M d v c h j j B S H / U z k 0 3 r 6 ; q c D N i e Z A d h V , - 6 e e e g l ",
"j S R Y A v u q 6 p s A D B p a s j j v v i 9 k E +.f , x B j I <.O.w.3.=. .K S K h = % # r h s m M d i Z I I U H i 9 v C z N a ",
"9 N P v < & X & $ & s l h l 2 9 s z u p v w 2 h D <.f , p x & : ) 3.e.7.=.=.}  . .) 9 * 3 h 0 = i x j z W ! Q _ / K W U Z j g 1 ",
"n H S k * , o # @ : s g Z M p 5 u r 9 t b 7 a P z U r @ y h # + p X.<.@.W | %.&.:...H d u b c i w s i c ^ )  .' ` ' &.*.! a y s ",
"l s l r - 3 2 4 8 x A e b f 8 5 9 u g q t 4 g v s V r . - ; . & N / #.( W | X.[ *.O.! s u g s y c y < p ! K T _ / { @.>.| M u u ",
"F c J W S ! L J ` <.P 2 M B g q 3 0 a 0 9 r b n b E i ; p - q 9 | / .._ Y ^ ..O.2.6.,.T z q 9 u N 5 y D ] L J W ^ ( @.-._ K f v ",
";.<.d.H.%X!.0.^.oXU.} ! u.O.~ *.S ! S m r p h K J $.D ' b.7.t.9.0.<.#.'  .0.u.-.>.#.@.q.] t e / U T d.l.u.! z V U P O.e.C.M.#.,.",
"^ 3.i.Q.!.M.0.F.A.5.} *.$.N o.t.f.S.d.T j B B F ..%.v _ %.H ( [ { T g s R 8.%.K ' e.q.! L b k Q ! +.1.-.3.R A Y ( L W W 1.,.) +.",
"8 i d f b R J f q w u a h A ' t.v.K.Z.k.p.3.} S m ~ ~ p 3 * # # % > ; , % = : 8 a E b 1 q s g j u 7 5 , 1 4 , 1 - > 1 > h b 8 5 ",
"2 w l d ~ ).|. .t p 2 9 9 +.Q.#X&X8X0X XZ.6.D l y $.<.4 * * # $ % % & & > - @ : < 1 1 2 5 i f J Q A a 8 < > 5 = & 5 > : 7 0 , 2 ",
"2 : < 3 h >.%Xg.s L d 8 r ;. X~.>X7XJ...m f v A 7 8 4 = & # @ X O X @ @ O $ = $ @ $ < 5 r x :.{.N.;.W u 8 = > - - 7 1 - : * < > ",
"7 , - & : 0 1.F 9 t z m 2 6 k H v.R.W e 4 B S.3.7 > % O @ * X $ 6 A 2 i v > + @ $ ; q i f a S -.Y h q 1 2 % - , : % = 1 > : 3 - ",
"r : * , * 0 u 5 = > 7 y & ; : e 3.} q 3 , u ( 7 % + & 1 9 % $ + t H ; 2 0 O & & % 0 p e w 5 6 1 1 - ; % ; 9 N j 6 r h h l 6 - B ",
"K 3 $ % y R > * = % * & & * & > V 0 7 q - : $ * = & - 6 s > - % % @ % # # = - ; : C >.r , 7 < 1 ; , > 2 p / $XX.p h.`.g.K.+.M x.",
"i.' W E B ~ ^ c w r r 8 d i j v G A ] r.P n z ! ' T V ..} ! Y H ) o.C x S R E %.} @.3.R ! b t g Z O.4.,.+.&.W.:.X.i.H.3.z.e.,.Z.",
"*.' [ T V U Y B h i 4 6 9 e d s p p Q =.I U b D G V s ` G S V J W U x f f h J ' ] R W <.` 0 8 5 u P &./ C F E H m C D c h S J L ",
"O.| } c f h 9 e J 4 6 4 q 3 1 8 4 t n B M F q f c d Y 5.u.;.0.8.7.O.M W T Y N g S ` =.:.n 7 < 1 6 0 U C 6 w t t , w F O.| @._ } ",
"-.>.6.F 8 7 8 c F 4 * 5 u q > 6 9 6 t z Y h * d ) [ 0.W.H.C.P.K.x.S.c.A.F.m.e.( F +.` { ~ b q 6 3 i M z a p H K T Q r.q.y.*.f ~ ",
"Y %.` b j j g S ! j 6 > 7 3 & : < * 0 e j g r r X.T.}.@XU.s.m.R.Z.I.G.K.Q.Q.C.$.b ;.^ { &.v 3 e x k j P P p r l d.g.8.Y ^ o.R A ",
"..q.D p f n E ( &.u.m h > & # $ = # p E x Y v c p.`.U.U.Y.V.I.I.!.!.D.n.~.^.n.*.^ i.` +.9.S < m I C ^ o.C m 8 V k.x.$.&.' W ;.[ ",
"1.e.y   % 7 C ! C ] V _ x > ; % > w H e.H ) K o.y.@.c.H.t.] i.A.!.S.1.d.L.{.y.5.E ~ V R ;.O.s _ w.+.,.] j C z :.q.H L  .N C O.T ",
"Z J < + & 2 p x j 6.P T R n w 0 V g x $.) #.` E C G Z.;.m t Z ..<...d u  . XB.=.c i w ~ R z r J @.| 4.! j m ( k.` k Z B x v R M ",
"b F 6 = % ; 3 5 7 J f y v c q 6 C 0 b T R N t 9 9 K w.Y d 9 0 1 > , > - 6 (  .i < p b Y p > d b f C U l < 8 8 S D g z K N g M M ",
"U _ ! G N d F F f i x ! ..../ ! ^ X.7.:.5.9.>.@.$.2.&._ o./ M K K I E J U Y B p 1 #.i. .g f t 5 < ; % + O $ % * - + , > & c #.^ ",
"W T O.[ +.! R | ..) ' q.t.4.2.6.' t.B.a.a.h.c.r.w.:.R V ;.#.h { <.:.=.*.e.o.D O.W :.%.g W  .8 5 > + # O @ @ ; < & & 8 0 ; h :.P ",
"v U [ ..=.} / #.>.8.w.a.r.i.5.w.} d.b.k.a.e.l.y.5.%.[ ..t.=.a G 8.1.1.4.t.1.` f.k.x.i.5.4.B 7 M m t 0 5 q f c s 9 2 f Z d Z #.L ",
"A ^ / | @.O.} *.*.:.e.f.q.p.p.1.L 0.i.t.w.9.6.<.;.E Q *.-.#.f B O.r.3.w.X.D E G _ i.j.j...p 8 v / S z l i D ) k w < d u g s &.m ",
"V _ ` ^  . .~ ' J d X.1.,.q.9.1.Z $.8.3.-.3.X.` _ S L ! | X.M ~ ] &.=.3.E 5 c K W =.w.@.` D : Z :.A C E q w z f w - M R X.-.w.Z ",
"c ! b r N D L m t 0 F ) { [ { X.x B F D b S v j m S b k H M B I I U n b V n W ` q p F m m k 3 n *.U Q ` v Y I U n e B T $.@.+.r ",
"w i q , 1 , w r ; r 0 9 0 r t z 5 < O & * = & * - < > < 3 < r r q 9 > 3 8 j B c d 8 r b t 3 4 r j v M Z j T Y ` n N ! v M v C t "
};